<?xml version="1.0" encoding="UTF-8"?><svg id="Layer_2" xmlns="http://www.w3.org/2000/svg" viewBox="0 0 441.8 84.07"><defs><style>.cls-1{fill:#2e71e4;}</style></defs><g id="img"><g><g><path class="cls-1" d="M246.59,16.88h-8.92c-.38,0-.74,.19-.95,.52l-20.08,30.85-20.08-30.85c-.21-.32-.57-.52-.95-.52h-8.93c-.45,0-.72,.49-.48,.87,3.3,5.1,20.31,31.17,27.37,41.98,1.45,2.22,4.7,2.21,6.14,0l27.35-41.97c.25-.38-.02-.88-.47-.88Z"/><path class="cls-1" d="M321.31,16.93h6.59c.35,0,.64,.28,.64,.64V53.15h48.68c.35,0,.64,.29,.64,.64v6.57c0,.35-.29,.64-.64,.64h-52.21c-2.73,0-4.38-3.08-4.38-5.07,0-4.34,.03-33.65,.03-38.37,0-.35,.29-.64,.64-.64Z"/><path class="cls-1" d="M310.07,53.2h-48.83v-10.28h32.57c.34,0,.65-.18,.82-.47l3.56-6.19c.22-.38-.06-.85-.49-.85h-36.41v-10.65l48.75,.05c.36,0,.64-.29,.64-.64l-.02-6.62c0-.35-.29-.64-.64-.64h-50.97c-3.48,0-5.82,2.73-5.82,4.92v20.11h0v14.8c0,1.89,2.29,4.23,4.82,4.23h52.01c.35,0,.64-.29,.64-.64v-6.47c0-.35-.29-.64-.64-.64Z"/><path class="cls-1" d="M441.16,53.2h-48.83v-10.28h32.57c.34,0,.65-.18,.82-.47l3.56-6.19c.22-.38-.06-.85-.49-.85h-36.41v-10.65l48.75,.05c.36,0,.64-.29,.64-.64l-.02-6.62c0-.35-.29-.64-.64-.64h-50.97c-3.48,0-5.82,2.73-5.82,4.92v20.11h0v14.8c0,1.89,2.29,4.23,4.82,4.23h52.01c.35,0,.64-.29,.64-.64v-6.47c0-.35-.29-.64-.64-.64Z"/><path class="cls-1" d="M169.05,16.94h-46.25c-.35,0-.64,.29-.64,.64v6.47c-.01,.36,.27,.64,.63,.64h45.64c2.59,0,4.51,2.85,4.51,4.77v19.36c0,1.92-1.59,4.31-4.11,4.31h-38.56V26.61c0-.18-.23-.24-.32-.09l-7.35,12.73c-.3,.51-.45,1.09-.45,1.68v19.46c0,.35,.29,.64,.64,.64h46.9c5.37,0,11.21-6.63,11.21-10.94V27.69c0-4.87-6.56-10.74-11.84-10.74Z"/></g><path class="cls-1" d="M95.78,0H.99C.23,0-.25,.83,.13,1.49L15.12,27.45c.3,.53,.87,.85,1.47,.85h9.53c.76,0,1.24-.83,.86-1.49L17.62,10.59h61.54l-13.38,23.18H.99c-.76,0-1.24,.83-.86,1.49l4.77,8.25c.3,.53,.87,.85,1.47,.85H59.66l-11.27,19.52-7.62-13.2c-.3-.53-.87-.85-1.47-.85h-9.53c-.76,0-1.24,.83-.86,1.49l18.63,32.26c.38,.66,1.33,.66,1.72,0l22.64-39.22h18.51c.61,0,1.17-.32,1.47-.85l4.77-8.25c.38-.66-.1-1.49-.86-1.49h-17.78L96.64,1.49c.38-.66-.1-1.49-.86-1.49Z"/></g></g></svg>